<!--?xml version="1.0" encoding="utf-8"?-->
<!-- Generator: Adobe Illustrator 18.1.1, SVG Export Plug-In . SVG Version: 6.00 Build 0)  -->

<svg version="1.1" id="_x32_" xmlns="http://www.w3.org/2000/svg" xmlns:xlink="http://www.w3.org/1999/xlink" x="0px" y="0px" viewBox="0 0 512 512" style="width: 256px; height: 256px; opacity: 1;" xml:space="preserve">
<style type="text/css">
	.st0{fill:#4B4B4B;}
</style>
<g>
	<path class="st0" d="M211.763,416.756c-18.89,0-34.206,15.313-34.206,34.228c0,18.89,15.316,34.194,34.206,34.194
		c18.894,0,34.216-15.304,34.216-34.194C245.979,432.068,230.657,416.756,211.763,416.756z" style="fill: rgb(75, 75, 75);"></path>
	<path class="st0" d="M402.96,416.756c-18.894,0-34.211,15.313-34.211,34.228c0,18.89,15.317,34.194,34.211,34.194
		c18.889,0,34.211-15.304,34.211-34.194C437.171,432.068,421.849,416.756,402.96,416.756z" style="fill: rgb(75, 75, 75);"></path>
	<path class="st0" d="M151.402,129.06L132.04,52.446L0.652,26.822L0,30.168v50.227l89.13,17.38l73.924,292.508h288.742L512,145.462
		L151.402,129.06z M410.483,337.576H204.099l-39.208-155.141L445.492,195.2L410.483,337.576z" style="fill: rgb(75, 75, 75);"></path>
</g>
</svg>
